<svg xmlns="http://www.w3.org/2000/svg" viewBox="0 0 260 200" width="260" height="200">
  <defs>
    <linearGradient id="g5" x1="0" y1="0" x2="1" y2="1">
      <stop offset="0%" stop-color="#1f2430"/><stop offset="100%" stop-color="#454f66"/>
    </linearGradient>
  </defs>
  <rect width="260" height="200" fill="url(#g5)"/>
  <g fill="none" stroke="#a8b6d4" stroke-width="1.5" opacity="0.55">
    <path d="M0 18 C 65 4, 130 34, 260 12"/>
    <path d="M0 44 C 65 25, 130 66, 260 38"/>
    <path d="M0 70 C 65 46, 130 86, 260 64"/>
    <path d="M0 96 C 65 82, 130 118, 260 90"/>
    <path d="M0 122 C 65 103, 130 138, 260 116"/>
    <path d="M0 148 C 65 124, 130 170, 260 142"/>
    <path d="M0 174 C 65 160, 130 190, 260 168"/>
  </g>
</svg>
